# xmcd
#
# Track frame offsets: 
#        150
#        19293
#        34089
#        69729
#        91815
#        110958
#        126483
#        150405
#        170115
#        186720
#        203271
#        218121
#        235392
#        256722
#        277380
#        292419
#        312441
#        338820
#
# Disc length: 4782 seconds
#
# Revision: 0
# Processed by: cddbd v1.5.1PL0 Copyright (c) Steve Scherf et al.
# Submitted via: ExactAudioCopy v0.95a5
#
DISCID=2312ac12
DTITLE=Various Artist - 七里香2
DYEAR=2004
DGENRE=Acid
TTITLE0=2002年的第一场雪
TTITLE1=情人
TTITLE2=冲动的惩罚
TTITLE3=别说我的眼泪你无所谓
TTITLE4=丁香花
TTITLE5=十年
TTITLE6=东风破
TTITLE7=痴心绝对
TTITLE8=加速度
TTITLE9=我不是黄蓉
TTITLE10=SUPER STAR
TTITLE11=波斯猫
TTITLE12=七天七世纪
TTITLE13=算你很
TTITLE14=小薇
TTITLE15=大学生的自习曲
TTITLE16=回心转意
TTITLE17=北方的天空
EXTD=
EXTT0=
EXTT1=
EXTT2=
EXTT3=
EXTT4=
EXTT5=
EXTT6=
EXTT7=
EXTT8=
EXTT9=
EXTT10=
EXTT11=
EXTT12=
EXTT13=
EXTT14=
EXTT15=
EXTT16=
EXTT17=
PLAYORDER=
